HIERARCHY
ROOT Hips
{
	OFFSET -3.958830 18.904000 13.208200
	CHANNELS 6 Xposition Yposition Zposition Zrotation Yrotation Xrotation 
	JOINT LHipJoint
	{
		OFFSET 0.000000 0.000000 0.000000
		CHANNELS 3 Zrotation Yrotation Xrotation
		JOINT LeftUpLeg
		{
			OFFSET 1.800000 -1.400000 0.085000
			CHANNELS 3 Zrotation Yrotation Xrotation
			JOINT LeftLeg
			{
				OFFSET 2.215000 -6.000000 0.000000
				CHANNELS 3 Zrotation Yrotation Xrotation
				JOINT LeftFoot
				{
					OFFSET 2.500000 -6.900000 0.000000
					CHANNELS 3 Zrotation Yrotation Xrotation
					JOINT LeftToeBase
					{
						OFFSET 0.200000 -0.500000 1.950000
						CHANNELS 3 Zrotation Yrotation Xrotation
						End Site
						{
							OFFSET 0.000000 0.000000 0.000000
						}
					}
				}
			}
		}
	}
	JOINT RHipJoint
	{
		OFFSET 0.000000 0.000000 0.000000
		CHANNELS 3 Zrotation Yrotation Xrotation
		JOINT RightUpLeg
		{
			OFFSET -1.800000 -1.400000 0.085000
			CHANNELS 3 Zrotation Yrotation Xrotation
			JOINT RightLeg
			{
				OFFSET -2.215000 -6.000000 0.000000
				CHANNELS 3 Zrotation Yrotation Xrotation
				JOINT RightFoot
				{
					OFFSET -2.500000 -6.900000 0.000000
					CHANNELS 3 Zrotation Yrotation Xrotation
					JOINT RightToeBase
					{
						OFFSET -0.200000 -0.500000 1.950000
						CHANNELS 3 Zrotation Yrotation Xrotation
						End Site
						{
							OFFSET 0.000000 0.000000 0.000000
						}
					}
				}
			}
		}
	}
	JOINT LowerBack
	{
		OFFSET 0.000000 0.000000 0.000000
		CHANNELS 3 Zrotation Yrotation Xrotation
		JOINT Spine
		{
			OFFSET -0.087000 1.940000 -0.288900
			CHANNELS 3 Zrotation Yrotation Xrotation
			JOINT Spine1
			{
				OFFSET 0.000000 1.950000 0.060000
				CHANNELS 3 Zrotation Yrotation Xrotation
				JOINT Neck
				{
					OFFSET 0.000000 0.000000 0.000000
					CHANNELS 3 Zrotation Yrotation Xrotation
					JOINT Neck1
					{
						OFFSET 0.000000 1.600000 0.340000
						CHANNELS 3 Zrotation Yrotation Xrotation
						JOINT Head
						{
							OFFSET 0.000000 1.667000 -0.240000
							CHANNELS 3 Zrotation Yrotation Xrotation
							End Site
							{
								OFFSET 0.000000 0.000000 0.000000
							}
						}
					}
				}
				JOINT LeftShoulder
				{
					OFFSET 0.000000 0.000000 0.000000
					CHANNELS 3 Zrotation Yrotation Xrotation
					JOINT LeftArm
					{
						OFFSET 2.700000 1.550000 -0.730000
						CHANNELS 3 Zrotation Yrotation Xrotation
						JOINT LeftForeArm
						{
							OFFSET 5.450000 0.000000 0.000000
							CHANNELS 3 Zrotation Yrotation Xrotation
							JOINT LeftHand
							{
								OFFSET 3.450000 0.000000 0.000000
								CHANNELS 3 Zrotation Yrotation Xrotation
								JOINT LeftHandIndex1
								{
									OFFSET 0.750000 0.000000 0.000000
									CHANNELS 3 Zrotation Yrotation Xrotation
									End Site
									{
										OFFSET 0.000000 0.000000 0.000000
									}
								}
							}
						}
					}
				}
				JOINT RightShoulder
				{
					OFFSET 0.000000 0.000000 0.000000
					CHANNELS 3 Zrotation Yrotation Xrotation
					JOINT RightArm
					{
						OFFSET -2.700000 1.550000 -0.730000
						CHANNELS 3 Zrotation Yrotation Xrotation
						JOINT RightForeArm
						{
							OFFSET -5.450000 0.000000 0.000000
							CHANNELS 3 Zrotation Yrotation Xrotation
							JOINT RightHand
							{
								OFFSET -3.450000 0.000000 0.000000
								CHANNELS 3 Zrotation Yrotation Xrotation
								JOINT RightHandIndex1
								{
									OFFSET -0.750000 0.000000 0.000000
									CHANNELS 3 Zrotation Yrotation Xrotation
									End Site
									{
										OFFSET 0.000000 0.000000 0.000000
									}
								}
							}
						}
					}
				}
			}
		}
	}
}
MOTION
Frames: 12
Frame Time: 0.016667
-0.345200 17.403150 -4.635760 -12.894488 -10.255757 -8.893426 -14.850437 12.333824 1.460298 6.616864 -0.792432 -9.814643 -2.681378 6.613834 23.498599 -0.770862 4.866868 3.036144 0.533990 0.223150 0.316700 18.851666 -8.479213 6.116704 -4.869979 19.664516 -45.923804 12.650190 -46.778565 105.700619 -4.791834 -20.820887 -0.960063 0.200130 0.235330 0.019900 -4.915413 -1.857479 -8.558512 25.471005 -12.817462 38.314359 -10.707275 -5.928066 10.301391 2.029525 -8.460277 -9.575956 -21.462829 9.258828 43.477175 -3.463030 1.721960 -18.510320 -24.857015 -9.240215 2.901618 -9.474097 12.229317 -9.387993 -115.438770 -69.239494 80.976336 -3.644410 2.787151 0.906770 0.031300 -0.009260 0.226350 20.863465 11.601735 7.645889 18.825865 -12.125184 -12.833160 56.792820 71.118719 30.262180 1.736424 -1.672929 -0.408450 0.524740 -0.011200 -0.331610 
-0.389260 17.275740 -4.568300 -11.459543 -13.418016 -8.394111 -14.879841 12.408554 1.650343 5.021863 -1.098330 -11.158705 -2.932114 6.992076 25.742433 -0.722793 5.119912 2.949979 0.541230 0.243810 0.320050 18.781314 -8.634280 5.866707 -4.897483 17.983067 -39.831590 13.329308 -45.962746 103.480983 -4.613483 -20.283969 -0.887542 0.233850 0.286260 0.035880 -4.800403 -2.019301 -8.508722 23.010229 -10.107604 35.013869 -9.248491 -4.715365 10.440929 1.766368 -7.726761 -8.892962 -19.440711 8.945742 43.299025 -4.698600 2.714980 -14.822660 -26.723746 -8.848574 2.920731 -13.096503 10.332212 -9.085748 -102.208586 -68.582972 65.868409 -3.735893 2.938324 0.816630 0.116320 -0.059850 0.242530 23.067116 11.295054 6.756967 18.866325 -10.974809 -12.977317 51.638900 65.915403 24.451157 1.639133 -1.792808 -0.403740 0.507590 -0.025500 -0.322450 
-0.445490 17.150990 -4.496810 -9.975267 -16.602814 -7.966133 -14.904892 12.524792 1.898005 3.687669 -1.518225 -12.596130 -3.232638 7.506961 28.516457 -0.650071 5.474562 2.792056 0.563640 0.278560 0.315720 18.716440 -8.922801 5.449640 -4.917985 15.781204 -33.070458 14.298400 -42.352950 97.574421 -4.230309 -18.969819 -0.691893 0.264060 0.299830 0.054680 -4.683578 -2.120778 -8.381558 20.463627 -7.772689 31.345619 -7.989591 -3.618532 10.483299 1.488070 -7.741684 -8.439051 -19.298064 10.061240 42.971243 -4.566470 3.909280 -12.811590 -27.137103 -7.703099 2.681199 -18.208820 8.121803 -9.201944 -85.099905 -66.140806 49.159984 -3.676546 3.194203 0.755130 0.157590 -0.089710 0.249550 23.865237 10.661074 5.885215 21.279243 -8.417977 -12.996493 44.757538 59.329928 17.994792 1.606945 -1.799160 -0.379640 0.467970 -0.033150 -0.315400 
-0.529250 17.000770 -4.404270 -7.890442 -19.529635 -6.504141 -14.974127 12.534550 2.249589 2.603480 -2.304677 -14.906691 -5.258094 8.613146 30.813337 -0.531458 5.983348 2.604967 0.554950 0.281420 0.292440 18.628385 -9.162354 4.951578 -5.677046 13.488723 -27.786393 14.218028 -38.420855 92.120929 -3.843485 -17.777126 -0.486552 0.278660 0.359800 0.089900 -4.467318 -2.219266 -8.297983 16.349808 -4.990362 25.125054 -6.045744 -2.386006 10.959190 1.271454 -6.587706 -7.467622 -16.572201 9.763167 43.510700 -5.403580 5.239240 -9.102640 -26.422566 -5.469184 2.017974 -25.049092 5.871383 -9.625827 -69.187938 -62.106910 35.184053 -3.711214 3.265091 0.657880 0.252310 -0.143420 0.274790 23.475739 8.302252 4.382666 25.962768 -4.357874 -12.063210 36.979183 51.393674 11.982942 1.620187 -1.750272 -0.365400 0.424020 -0.044670 -0.297170 
-0.625630 16.848110 -4.313460 -6.047187 -22.214305 -5.114440 -15.035332 12.488436 2.592007 1.660973 -3.290813 -17.571981 -6.440802 9.777067 34.294994 -0.340089 6.684505 2.378379 0.453530 0.193520 0.181770 18.566727 -9.477041 4.355924 -6.395612 11.132380 -22.949743 13.110055 -34.110204 86.775070 -3.392253 -16.550253 -0.237171 0.245500 0.486300 0.077150 -4.302392 -2.111815 -8.072353 13.105707 -2.988014 18.766834 -4.893730 -1.395725 10.661555 0.859090 -6.023162 -6.659697 -15.256047 10.095346 43.494705 -4.402510 5.909040 -3.936950 -24.784447 -2.532728 1.239557 -32.467824 3.165955 -9.431131 -54.160633 -56.184031 22.999100 -3.812208 3.216676 0.526280 0.360200 -0.259610 0.286660 22.575153 5.500475 3.208638 32.647376 -1.396026 -10.968868 28.780169 43.818734 7.153088 1.671485 -1.649864 -0.385680 0.414090 -0.007470 -0.253330 
-0.701050 16.735210 -4.234310 -5.096243 -25.871994 -4.296298 -15.028686 12.437960 2.885905 1.779705 -4.029622 -19.278127 -7.870158 11.094787 37.310656 -0.123791 7.440769 2.164093 0.375870 0.107640 0.100650 18.560153 -9.916724 3.733423 -6.813865 8.936017 -17.135976 12.443769 -29.748529 79.664970 -2.939095 -15.082408 0.108351 0.194450 0.585300 0.075810 -4.337780 -1.717219 -7.743604 12.478137 -1.638172 14.245378 -4.805038 -0.499737 9.624336 0.731499 -5.922290 -5.934718 -14.951472 10.419875 43.879889 -4.053040 6.323690 -0.232710 -23.541286 0.493566 0.416960 -40.033680 0.706581 -8.967448 -39.771793 -48.508608 12.938719 -3.866201 3.092176 0.465520 0.423200 -0.320730 0.324410 21.402143 2.737522 2.244655 40.063270 1.000882 -10.009372 19.944187 36.407350 3.286761 1.744547 -1.519739 -0.406990 0.419110 0.003600 -0.214140 
-0.781390 16.648390 -4.171680 -4.993764 -30.677957 -3.491793 -14.952293 12.405003 3.141469 3.141898 -4.282490 -20.076833 -10.234317 12.702032 38.814992 0.085625 8.122674 1.986385 0.240870 -0.027970 0.000480 18.597157 -10.466280 3.167597 -6.349598 6.837255 -10.602348 11.277675 -24.769230 71.224035 -2.414121 -13.310926 0.593140 0.106180 0.682720 0.025510 -4.568976 -1.084937 -7.428699 13.571193 -0.221626 11.152619 -5.806214 0.713711 7.957789 0.920781 -6.013111 -5.596437 -15.092197 10.174040 44.768045 -3.512200 5.833290 2.721580 -23.662293 2.565495 -0.135061 -45.742081 -0.223391 -8.682591 -28.687177 -42.309376 6.980421 -3.916636 2.859163 0.436730 0.456400 -0.371170 0.329900 20.824064 0.987818 1.968658 46.810617 1.667986 -9.536802 12.892135 30.128069 0.889255 1.836366 -1.331847 -0.456490 0.482920 0.047750 -0.176520 
-0.864980 16.580640 -4.160690 -4.971689 -34.665535 -2.617818 -14.937313 12.406445 3.532526 4.799669 -4.942192 -22.020862 -12.559395 14.386946 40.840085 0.321200 8.821797 1.729633 0.190860 -0.079090 -0.033000 18.575234 -10.879011 2.620234 -6.027574 4.166443 -4.630041 8.761739 -19.584715 62.120033 -1.886496 -11.406788 1.128772 0.038500 0.648970 -0.008560 -4.580095 -0.824168 -7.252160 13.537588 0.918611 9.236292 -5.901133 1.644044 5.623230 1.087646 -6.294022 -5.570456 -16.029982 10.936742 46.494273 -2.739460 6.191650 5.143640 -24.191364 4.512637 -0.619569 -50.327194 -0.453031 -8.489194 -19.683302 -37.648041 3.276547 -3.891432 2.738752 0.429770 0.419660 -0.370140 0.310500 20.807665 -0.355990 1.878348 51.878503 1.296626 -9.109670 7.947347 24.795307 -0.363040 1.947634 -1.233273 -0.434680 0.441980 0.051060 -0.168170 
-0.942920 16.537660 -4.162230 -5.717529 -38.161803 -1.676361 -14.925984 12.325492 3.965741 7.250817 -5.751952 -24.375971 -14.750171 16.197059 43.539093 0.502407 9.722332 1.412774 0.206540 -0.113110 0.013040 18.574291 -11.130277 2.237786 -5.235392 1.185101 1.649939 5.802037 -14.846498 51.573926 -1.462210 -9.450657 1.718041 -0.010480 0.596430 0.001270 -4.666357 -0.671724 -7.179021 14.598861 1.607919 8.097426 -6.258187 2.223555 3.553624 1.418551 -6.715481 -6.052748 -17.912380 12.513184 49.970921 -2.031040 6.723950 5.530970 -25.048985 5.842290 -0.772257 -53.508732 0.666158 -9.092830 -13.835266 -36.850599 1.266201 -3.814222 2.612484 0.553750 0.343400 -0.292090 0.313900 20.801823 -1.236072 2.209205 55.702497 -0.116174 -9.525817 5.098298 22.301846 -0.822356 1.993082 -1.127040 -0.441560 0.442280 0.038320 -0.194550 
-0.992370 16.497900 -4.197960 -5.767500 -41.635473 -0.817115 -15.005828 11.985906 4.606821 9.464532 -7.346375 -28.735113 -17.289908 18.727927 47.929695 0.860702 10.849037 1.031002 0.300610 0.041130 0.055870 18.537328 -11.096259 1.986939 -5.533634 -1.212411 6.212435 3.234520 -11.657215 42.330634 -1.216467 -7.988335 2.222046 0.019640 0.481580 -0.044750 -4.652696 -0.634044 -7.335644 14.533016 2.099774 7.942235 -6.640375 2.813469 2.105040 1.657591 -7.206585 -6.909033 -20.271784 14.152129 52.584235 -0.775810 6.992500 4.459290 -25.259542 6.612932 -0.564462 -56.387303 1.469936 -10.257691 -10.731667 -39.905739 0.436002 -3.626880 2.583685 0.610550 0.229870 -0.168880 0.371510 20.469815 -1.371484 2.823221 59.481832 -1.850889 -10.630951 3.472203 22.382551 -1.144496 2.044695 -1.077951 -0.385460 0.445380 -0.072360 -0.167000 
-1.024370 16.469550 -4.246490 -6.847335 -44.730306 0.192109 -15.119071 11.549536 5.214117 13.241324 -8.248358 -32.936528 -20.079388 21.673229 51.783697 1.090665 12.129765 0.578401 0.325270 0.055420 0.096070 18.506494 -10.860734 1.918846 -4.990297 -2.868354 10.130320 0.653645 -9.418283 35.346461 -1.117040 -7.097357 2.515461 0.003170 0.408280 -0.024710 -4.684685 -0.644899 -7.604703 15.365979 2.525886 8.763338 -6.922677 3.571743 1.611864 2.184934 -7.286939 -7.754322 -21.905639 15.652724 55.538127 -1.116440 7.817350 1.863980 -26.247004 6.214058 -0.401143 -57.903402 1.561302 -11.043604 -9.904053 -44.247410 0.094680 -3.572977 2.546959 0.715020 0.169810 -0.090290 0.335040 20.355037 -0.846852 3.572408 60.834947 -3.035624 -11.408631 3.803031 23.175357 -0.992394 2.002190 -0.985194 -0.369320 0.455200 -0.040520 -0.207060 
-1.037210 16.448080 -4.318240 -8.165064 -47.012473 1.422167 -15.255109 11.005883 5.874862 17.316255 -9.049839 -37.601521 -22.945272 24.799866 55.550656 1.414292 13.308004 0.210982 0.405020 0.159570 0.152920 18.486780 -10.495796 1.937725 -3.614238 -4.300847 12.995409 -1.807308 -7.697128 29.804060 -1.120900 -6.503258 2.701687 0.011590 0.326480 0.002470 -4.751741 -0.681367 -7.967775 16.375139 2.017760 10.777992 -7.661704 3.610216 1.101713 2.347462 -7.935978 -8.113725 -24.754757 16.942840 56.263706 -0.887460 7.346540 -1.672590 -27.382462 6.658432 -0.639167 -58.183895 1.620614 -11.599528 -11.333264 -49.552580 0.842155 -3.480790 2.611599 0.752560 0.094030 0.001000 0.332190 20.979269 -0.985627 3.984101 60.447873 -4.287791 -12.823112 6.611670 28.147475 -0.388796 1.970011 -0.988511 -0.287970 0.443780 -0.070190 -0.192170 
